PathFileType	4	(X/Y/Z)	Patient4_TMGait_0pt5_01_left_07.trc.trc
DataRate	CameraRate	NumFrames	NumMarkers	Units	OrigDataRate	OrigDataStartFrame	OrigNumFrames
74.468085106383	74.468085106383	4	33	mm	74.468085106383	71	       141
Frame#	Time	L.ASIS			Sacral			L.Shoulder			Chest			R.Shoulder			Neck			R.ASIS			R.Thigh.Superior			R.Thigh.Lateral			R.Thigh.Inferior			R.Patella			L.Thigh.Superior			L.Thigh.Lateral			L.Thigh.Inferior			L.Patella			L.Shank.Superior			L.Shank.Lateral			L.Shank.Inferior			R.Shank.Superior			R.Shank.Lateral			R.Shank.Inferior			R.Heel			R.Midfoot.Superior			R.Midfoot.Lateral			R.Toe			L.Heel			L.Midfoot.Lateral			L.Midfoot.Superior			L.Toe			L.Elbow			L.Wrist			R.Elbow			R.Wrist			
		X1	Y1	Z1	X2	Y2	Z2	X3	Y3	Z3	X4	Y4	Z4	X5	Y5	Z5	X6	Y6	Z6	X7	Y7	Z7	X8	Y8	Z8	X9	Y9	Z9	X10	Y10	Z10	X11	Y11	Z11	X12	Y12	Z12	X13	Y13	Z13	X14	Y14	Z14	X15	Y15	Z15	X16	Y16	Z16	X17	Y17	Z17	X18	Y18	Z18	X19	Y19	Z19	X20	Y20	Z20	X21	Y21	Z21	X22	Y22	Z22	X23	Y23	Z23	X24	Y24	Z24	X25	Y25	Z25	X26	Y26	Z26	X27	Y27	Z27	X28	Y28	Z28	X29	Y29	Z29	X30	Y30	Z30	X31	Y31	Z31	X32	Y32	Z32	X33	Y33	Z33	

71	10.340000000000	725.708402098526	957.323976417736	305.534394582138	505.016097284229	1005.201085088128	451.323282856341	705.386307681215	1440.817519858196	300.604559126527	790.833267336623	1355.780603238322	464.795332920445	694.416947833408	1423.690639979157	635.277628498837	699.888067575388	1492.277308935998	452.970341342363	723.985435795678	940.098040447997	580.581442395824	793.484271474298	759.679802683802	551.903856414823	743.312997319397	643.170332532246	623.190583099972	824.184612715516	601.002140372615	537.624868536072	854.610734964757	521.645973008832	549.903534971945	741.364700566669	731.398647895570	346.965133053678	638.523644573351	628.776501773594	281.251352230103	695.261880269874	541.390154203785	357.478362578304	680.580745130717	472.215016783587	370.404923925237	648.160189685571	404.200577160745	360.414331764658	551.740263894448	299.888958548337	303.825517445178	577.071410783332	187.123437300049	383.366317645547	844.812385187476	433.834823821199	561.655632067167	804.110736423210	318.012237819945	629.567186104476	873.001543928257	235.273872917042	572.082026292239	785.613730154835	44.609697535124	549.743018763366	948.001608436506	123.958361624839	580.085836128658	875.329083537812	43.299818853331	616.867624525919	1075.483961338569	90.342014986921	594.966472054639	429.561128473867	38.914618587549	412.255877370097	510.071351803089	35.959000860880	338.845110789817	592.077931488958	95.184526203586	372.515267361311	721.370821812624	39.256230510760	354.193679834650	643.063154474354	1114.813011955609	137.469295504999	822.200798579889	935.378947115328	196.109119279106	592.695866563705	1082.372556563784	714.021187785755	628.378209110659	823.597520140480	726.490260567947	
72	10.353428571429	727.252953847366	956.135736657777	307.152164283777	506.420662509581	1003.841772004687	452.729541202343	705.868622970325	1439.612684338285	302.212121781041	791.536337249684	1354.689923272744	466.338984355694	695.248436808341	1422.500825615945	636.972668374894	700.444573730072	1491.129865521066	454.604066238421	725.140283963580	938.589182455262	582.237821088835	793.621361752927	757.207679667341	554.351645251263	741.400790680985	640.578033159003	624.226624770150	823.005229513664	598.693962712785	539.442926533967	851.865705134477	519.419226670996	550.895398796364	741.078622797824	729.562706359972	348.008544207516	636.955444870824	628.041151178470	282.246154184010	692.881845446583	540.035977439510	358.168538289131	677.539537993201	470.815951824160	371.102100545028	644.469005737907	403.195918978689	361.019871657639	546.992957700753	299.883705951413	304.277783769616	571.220831322697	186.782806226822	383.596679132774	842.642676090103	431.307665552066	562.464965837403	801.554554595420	315.377569558315	629.534992251102	870.771237457343	232.960838024546	572.091994475040	783.229827841198	43.610539213052	548.665587739521	946.046057739323	121.483527047617	579.922748300212	872.502468960099	41.888293637228	616.297679094031	1072.890160324392	86.676524539400	595.141838293760	422.821391965099	39.164342929019	412.279694361926	503.334019788737	36.140319442552	338.920937593462	585.362115177114	95.224300901384	372.590644450490	714.579433550922	39.062816676432	354.170815750230	642.726626062457	1113.779868179518	139.025828138844	820.813484703842	933.392458082672	198.309001073711	597.952602179202	1079.930869460953	716.902641872719	640.373913070864	822.265112669383	729.935750705781	
73	10.366857142857	728.846731830202	954.942961232773	308.887638393008	507.926259525152	1002.404984237622	454.375290299636	706.297719798381	1438.332963624489	303.993483899405	792.254296016086	1353.600659372046	468.058026669012	696.087214772853	1421.312311587752	638.838962672819	700.964736795581	1489.957777584268	456.406610867096	726.550153254124	937.027528719197	584.014078966942	794.503670211010	755.154298801416	556.537204805605	740.390153999953	638.129551765078	624.787947826394	822.962690226543	596.764028738210	540.920139405511	850.094178518624	517.076614179375	551.480572537818	741.072975273434	727.744754480073	348.961105583598	635.613132803456	627.279974106156	283.388202624133	690.962927027424	538.664072434004	358.875355523589	675.071631440071	469.296341718688	371.823097357700	641.161437448663	402.109485980110	361.684833454966	542.448496144086	299.960983479103	304.789105891093	565.482042823074	186.471482990651	383.822930998641	840.806844867275	428.524174684183	562.810657073749	798.419881933602	312.880088162736	629.102947991790	867.096462199066	230.224746348977	571.657931166434	777.728858895157	43.076743591465	547.398773928687	941.471053429439	118.292208694971	579.298798293316	866.495559321436	40.616694012922	615.641452562934	1067.456734944325	81.459724389182	595.186551252596	416.077178061399	39.538826055949	412.300556174314	496.608731504864	36.381062835749	338.996038411336	578.680181092458	95.311958875101	372.636646379967	707.811560506698	38.855893338660	354.113998086247	642.418808680773	1112.638914338964	140.750709067593	819.388733737519	931.146468979643	200.392222281498	603.373558614973	1077.556987490023	720.104651289953	653.046831309417	821.278770634683	733.772522809772	
74	10.380285714286	730.450857155111	953.802884576984	310.704892790051	509.506125564567	1000.957179764519	456.248108558540	706.683440217052	1437.045099232675	305.959630884278	793.001033766499	1352.555048558799	469.948282187441	696.961596212732	1420.159370529003	640.879867560076	701.475281915961	1488.811513985162	458.396457938025	728.212842065998	935.488935220637	585.873483506648	796.065256855066	753.486486666496	558.408476914164	740.226943822757	635.889632651843	624.945257007534	823.874403208584	595.171113168494	542.033399546189	849.200043450587	514.680994256209	551.661159169606	741.352076296961	726.022062257024	349.820254380233	634.544446529993	626.515576635182	284.675937764280	689.592289289058	537.306980954648	359.591293023616	673.288167594077	467.665877502393	372.533034683379	638.311150480933	400.956009568286	362.391359313500	538.151594812599	300.166568117485	305.364500997481	559.901928320169	186.219896177242	384.030150160172	839.345705274033	425.606594449762	562.723862868400	795.062526759109	310.530089848973	628.397566506346	862.456496387181	227.182955855793	570.838089665727	769.957845790738	42.809231752537	546.113634770371	934.977826322434	114.621992508363	578.243913399327	858.239788854441	39.460173352416	614.974596386302	1060.026870846574	75.248517667861	595.005214656482	409.340157922827	40.102769273921	412.319232981956	489.906654352637	36.698693440852	339.069424934106	572.071010290937	95.450903087477	372.635163182323	701.083644060774	38.648380301399	354.018742797527	642.163308822635	1111.428086731955	142.691717293673	817.940553073237	928.674709477866	202.396568940840	608.919673406085	1075.309864444053	723.609047419062	666.277716561449	820.718688039374	737.956836260733	
